<svg id="Layer_1" data-name="Layer 1" xmlns="http://www.w3.org/2000/svg" viewBox="0 0 109.32 122.88"><defs><style>.cls-1{fill-rule:evenodd;}</style></defs><title>computer-engineering</title><path class="cls-1" d="M64.91,94.86a1.5,1.5,0,0,0-2.16,0l-1.66,1.65a12.48,12.48,0,0,0-1.4-.74,13.5,13.5,0,0,0-1.49-.58V92.61a1.5,1.5,0,0,0-1.5-1.5H53.49A1.54,1.54,0,0,0,52,92.62V95a13.73,13.73,0,0,0-1.54.48,13,13,0,0,0-1.42.66l-1.83-1.81a1.4,1.4,0,0,0-1-.45h0a1.49,1.49,0,0,0-1.07.45L42.8,96.52a1.48,1.48,0,0,0-.47,1.08,1.51,1.51,0,0,0,.47,1.09l1.65,1.65a9.94,9.94,0,0,0-.75,1.4,13.5,13.5,0,0,0-.58,1.49H40.54a1.5,1.5,0,0,0-1.49,1.5v3.18h0a1.5,1.5,0,0,0,.44,1.06,1.45,1.45,0,0,0,1,.46h2.35a13.73,13.73,0,0,0,.48,1.54,15.65,15.65,0,0,0,.65,1.45l-1.8,1.8a1.38,1.38,0,0,0-.45,1v0h0a1.51,1.51,0,0,0,.45,1.08l2.24,2.24a1.61,1.61,0,0,0,2.17,0l1.65-1.68a10.39,10.39,0,0,0,1.4.74,13.66,13.66,0,0,0,1.5.58v2.54a1.48,1.48,0,0,0,1.49,1.5h3.18a1.5,1.5,0,0,0,1.49-1.5v-2.27a13.73,13.73,0,0,0,1.54-.48c.5-.19,1-.41,1.49-.65l1.8,1.8a1.4,1.4,0,0,0,1,.46h.06a1.42,1.42,0,0,0,1-.46L66.55,117a1.58,1.58,0,0,0,0-2.17l-1.68-1.65a9.42,9.42,0,0,0,.75-1.4,14.32,14.32,0,0,0,.58-1.49h2.56a1.51,1.51,0,0,0,1.06-.45,1.46,1.46,0,0,0,.44-1.06v-3.18h0a1.52,1.52,0,0,0-1.5-1.51H66.42a12.93,12.93,0,0,0-.48-1.49,10.38,10.38,0,0,0-.65-1.44l1.8-1.83a1.42,1.42,0,0,0,.46-1h0a1.52,1.52,0,0,0-.46-1.08l-2.24-2.24.06,0ZM53.17,105l-4.54,1.71,4.54,1.72v4l-7.05-4V105l7.05-4v4Zm10,0v3.43l-7.05,4v-4l4.54-1.72L56.15,105v-4l7.05,4ZM43.3,62.8a30.24,30.24,0,0,1-2.95,6.7,1.66,1.66,0,0,1-.38.37c.51,4.09,14.54,9.32,15.38,14.75H10.19A4,4,0,0,0,6.4,89.36l4.42,33.52h-4c-3.72-.29-5.62-2.21-5.93-5.54.19-15-5.5-33.09,10.27-41.88,5.77-3.23,20.66-4.32,27.16-8.58a45.7,45.7,0,0,0,2.36-6l-.52-.5c-3.68-3.62-6.15-9-6.86-17.17l-1.33-1.35a1.9,1.9,0,0,1-.66-1.42V37.25h4v2.39L36.67,41a1.87,1.87,0,0,1,.54,1.21h0c.55,7.52,2.65,12.34,5.78,15.43s7.16,4.43,11.85,5.15a19,19,0,0,0,11.82-6.26c3-3.51,4.86-8.38,5.43-14.34a1.87,1.87,0,0,1,.42-1h0l1.23-1.51,0-2.59,4,0,0,3.1a1.92,1.92,0,0,1-.42,1.32L76,43.15C75.33,49.63,73.22,55,69.77,59a19.93,19.93,0,0,1-1.62,1.69l-.41.33q.44.61.9,1.32c1.06,1.55,2.27,3.32,3.39,4.7,6.62,4.12,21.2,5.23,26.91,8.41,14.5,8.09,9.21,27.73,10.26,41.88-.31,3.33-2.21,5.25-5.93,5.54h-4l4.41-33.52a4,4,0,0,0-3.79-4.74H56.52c1.38-10,13.56-10,13.86-14.66a60.17,60.17,0,0,1-4.33-5.84c-.29-.42-.56-.83-.83-1.21-.36.26-.73.51-1.1.76a25.32,25.32,0,0,1-8.92,3,1.82,1.82,0,0,1-.66,0,29.85,29.85,0,0,1-9.62-2.86c-.55-.32-1.09-.66-1.62-1Zm3-57.13a1.82,1.82,0,0,1-.66-.1C39.75,8.19,35,14,33.71,23.55a2,2,0,0,1-2.24,1.68,2,2,0,0,1-1.75-2.16C31.23,11.89,37,5.12,44.06,2A24.59,24.59,0,0,1,55.4,0a27.79,27.79,0,0,1,11.1,3c7.27,3.77,12.8,10.81,13.2,20.17a2,2,0,0,1-4,.16A19.83,19.83,0,0,0,64.6,6.49l-.8-.39a2.07,2.07,0,0,1-.71.11c-1.83,0-2.31,3.21-2.42,7.6-.05,2,0,4.13,0,6.34,0,1.76.07,3.55.07,4.75a2,2,0,0,1-4,0c0-1.95,0-3.33-.06-4.69,0-2.26-.08-4.46,0-6.5.1-4,.57-7.3,2-9.33a23.53,23.53,0,0,0-3.54-.48,22.92,22.92,0,0,0-4.46.2C52,6.17,52.5,9.47,52.6,13.36c0,2.1,0,4.38,0,6.73,0,1.4-.06,2.83-.06,4.81a1.95,1.95,0,1,1-3.89,0c0-1.24,0-3.07.07-4.87,0-2.3.08-4.55,0-6.58-.1-4.5-.59-7.83-2.45-7.78ZM44.92,63.81Zm-15-38.18a7.42,7.42,0,0,0,2.92,3c4.47,2.79,12.33,4.13,20.44,4.16s16.51-1.31,21.86-3.85a10.48,10.48,0,0,0,4.5-3.45l3.45,2a14.19,14.19,0,0,1-6.18,4.93C71,35.16,62,36.62,53.25,36.6S35.76,35,30.63,31.82a11.27,11.27,0,0,1-4.38-4.59l3.65-1.6Z"/></svg>